v 0 0 0
v 0 1 0
v 0 1 1
v 0 0 1
v 1 0 1
v 1 0 0
v 1 1 1
v 1 1 0
v 2 0 1
v 2 0 0
v 2 1 0
v 2 1 1
v 1 2 0
v 1 2 1
v 2 2 1
v 2 2 0
v 3 0 1
v 3 0 0
v 3 1 0
v 3 1 1
v 3 2 0
v 3 2 1
v 2 3 0
v 2 3 1
v 3 3 1
v 3 3 0
v 4 0 0
v 4 1 0
v 4 1 1
v 4 0 1
v 4 2 0
v 4 2 1
v 4 3 0
v 4 3 1
v 3 4 0
v 3 4 1
v 4 4 0
v 4 4 1
f 1 3 2
f 1 4 3
f 1 5 4
f 1 6 5
f 2 3 7
f 2 7 8
f 1 8 6
f 1 2 8
f 4 5 7
f 4 7 3
f 6 9 5
f 6 10 9
f 6 11 10
f 6 8 11
f 5 9 12
f 5 12 7
f 8 14 13
f 8 7 14
f 13 14 15
f 13 15 16
f 8 16 11
f 8 13 16
f 7 12 15
f 7 15 14
f 10 17 9
f 10 18 17
f 10 19 18
f 10 11 19
f 9 17 20
f 9 20 12
f 11 21 19
f 11 16 21
f 12 20 22
f 12 22 15
f 16 24 23
f 16 15 24
f 23 24 25
f 23 25 26
f 16 26 21
f 16 23 26
f 15 22 25
f 15 25 24
f 27 28 29
f 27 29 30
f 18 30 17
f 18 27 30
f 18 28 27
f 18 19 28
f 17 30 29
f 17 29 20
f 28 31 32
f 28 32 29
f 19 31 28
f 19 21 31
f 20 29 32
f 20 32 22
f 31 33 34
f 31 34 32
f 21 33 31
f 21 26 33
f 22 32 34
f 22 34 25
f 26 36 35
f 26 25 36
f 33 37 38
f 33 38 34
f 35 36 38
f 35 38 37
f 26 37 33
f 26 35 37
f 25 34 38
f 25 38 36
