v 1.35 0 0
v 1.32335782 0.1339392 0
v 1.24748731 0.247487366 0
v 1.13393915 0.323357821 0
v 1 0.35 0
v 0.8660608 0.323357821 0
v 0.752512634 0.247487366 0
v 0.6766421 0.133939147 0
v 0.65 -3.059797E-08 0
v 0.6766422 -0.133939192 0
v 0.7525127 -0.247487411 0
v 0.8660609 -0.32335788 0
v 1 -0.35 0
v 1.13393927 -0.3233578 0
v 1.24748743 -0.247487277 0
v 1.32335782 -0.133939192 0
v 1.32406008 0 0.263371944
v 1.29792988 0.1339392 0.2581743
v 1.22351718 0.247487366 0.243372709
v 1.11215079 0.323357821 0.221220553
v 0.980785251 0.35 0.195090324
v 0.849419653 0.323357821 0.16896008
v 0.7380533 0.247487366 0.146807939
v 0.6636406 0.133939147 0.132006332
v 0.6375104 -3.059797E-08 0.1268087
v 0.6636407 -0.133939192 0.132006347
v 0.7380533 -0.247487411 0.146807939
v 0.8494198 -0.32335788 0.168960109
v 0.980785251 -0.35 0.195090324
v 1.11215091 -0.3233578 0.221220583
v 1.2235173 -0.247487277 0.243372723
v 1.29792988 -0.133939192 0.2581743
v 1.24723732 0 0.516622663
v 1.22262311 0.1339392 0.506427169
v 1.15252793 0.247487366 0.477392763
v 1.04762316 0.323357821 0.433939755
v 0.9238795 0.35 0.382683456
v 0.8001358 0.323357821 0.331427127
v 0.695231 0.247487366 0.287974149
v 0.6251358 0.133939147 0.258939743
v 0.6005217 -3.059797E-08 0.248744234
v 0.625135839 -0.133939192 0.258939773
v 0.6952311 -0.247487411 0.287974149
v 0.8001359 -0.32335788 0.3314272
v 0.9238795 -0.35 0.382683456
v 1.04762328 -0.3233578 0.433939785
v 1.152528 -0.247487277 0.4773928
v 1.22262311 -0.133939192 0.506427169
v 1.122484 0 0.750019848
v 1.10033178 0.1339392 0.7352182
v 1.03724778 0.247487366 0.693066835
v 0.9428359 0.323357821 0.6299828
v 0.8314696 0.35 0.555570245
v 0.7201032 0.323357821 0.4811576
v 0.625691354 0.247487366 0.418073624
v 0.562607348 0.133939147 0.375922233
v 0.5404552 -3.059797E-08 0.361120641
v 0.5626074 -0.133939192 0.375922263
v 0.6256914 -0.247487411 0.418073654
v 0.7201033 -0.32335788 0.48115766
v 0.8314696 -0.35 0.555570245
v 0.942836046 -0.3233578 0.6299829
v 1.0372479 -0.247487277 0.6930669
v 1.10033178 -0.133939192 0.7352182
v 0.954594135 0 0.954594135
v 0.935755253 0.1339392 0.935755253
v 0.8821067 0.247487366 0.8821067
v 0.801816046 0.323357821 0.801816046
v 0.707106769 0.35 0.707106769
v 0.612397432 0.323357821 0.612397432
v 0.532106757 0.247487366 0.532106757
v 0.478458226 0.133939147 0.478458226
v 0.459619373 -3.059797E-08 0.459619373
v 0.478458256 -0.133939192 0.478458256
v 0.5321068 -0.247487411 0.5321068
v 0.612397552 -0.32335788 0.612397552
v 0.707106769 -0.35 0.707106769
v 0.8018161 -0.3233578 0.8018161
v 0.8821068 -0.247487277 0.8821068
v 0.935755253 -0.133939192 0.935755253
v 0.7500198 0 1.12248409
v 0.735218167 0.1339392 1.1003319
v 0.6930668 0.247487366 1.0372479
v 0.629982769 0.323357821 0.942836
v 0.5555702 0.35 0.831469655
v 0.481157541 0.323357821 0.720103264
v 0.4180736 0.247487366 0.6256914
v 0.375922173 0.133939147 0.5626074
v 0.3611206 -3.059797E-08 0.5404553
v 0.375922233 -0.133939192 0.562607467
v 0.418073624 -0.247487411 0.6256915
v 0.481157631 -0.32335788 0.7201034
v 0.5555702 -0.35 0.831469655
v 0.6299828 -0.3233578 0.9428361
v 0.693066835 -0.247487277 1.0372479
v 0.735218167 -0.133939192 1.1003319
v 0.516622663 0 1.24723732
v 0.5064271 0.1339392 1.22262311
v 0.4773927 0.247487366 1.15252793
v 0.433939725 0.323357821 1.04762316
v 0.382683426 0.35 0.9238795
v 0.3314271 0.323357821 0.8001358
v 0.287974119 0.247487366 0.695231
v 0.2589397 0.133939147 0.6251358
v 0.24874422 -3.059797E-08 0.6005217
v 0.258939743 -0.133939192 0.625135839
v 0.287974149 -0.247487411 0.6952311
v 0.331427157 -0.32335788 0.8001359
v 0.382683426 -0.35 0.9238795
v 0.433939755 -0.3233578 1.04762328
v 0.477392763 -0.247487277 1.152528
v 0.5064271 -0.133939192 1.22262311
v 0.263371825 0 1.3240602
v 0.258174181 0.1339392 1.29792988
v 0.243372589 0.247487366 1.22351718
v 0.221220449 0.323357821 1.11215091
v 0.195090234 0.35 0.9807853
v 0.16896 0.323357821 0.8494197
v 0.146807864 0.247487366 0.7380533
v 0.132006273 0.133939147 0.6636407
v 0.126808643 -3.059797E-08 0.6375104
v 0.132006288 -0.133939192 0.663640738
v 0.146807879 -0.247487411 0.7380534
v 0.16896002 -0.32335788 0.849419832
v 0.195090234 -0.35 0.9807853
v 0.221220478 -0.3233578 1.112151
v 0.243372619 -0.247487277 1.2235173
v 0.258174181 -0.133939192 1.29792988
v -5.90103753E-08 0 1.35
v -5.78458064E-08 0.1339392 1.32335782
v -5.45294E-08 0.247487366 1.24748731
v -4.95660544E-08 0.323357821 1.13393915
v -4.371139E-08 0.35 1
v -3.785672E-08 0.323357821 0.8660608
v -3.289337E-08 0.247487366 0.752512634
v -2.95769667E-08 0.133939147 0.6766421
v -2.84124013E-08 -3.059797E-08 0.65
v -2.95769684E-08 -0.133939192 0.6766422
v -3.28933751E-08 -0.247487411 0.7525127
v -3.78567258E-08 -0.32335788 0.8660609
v -4.371139E-08 -0.35 1
v -4.95660579E-08 -0.3233578 1.13393927
v -5.452941E-08 -0.247487277 1.24748743
v -5.78458064E-08 -0.133939192 1.32335782
v -0.263371944 0 1.32406008
v -0.2581743 0.1339392 1.29792988
v -0.243372709 0.247487366 1.22351718
v -0.221220553 0.323357821 1.11215079
v -0.195090324 0.35 0.980785251
v -0.16896008 0.323357821 0.849419653
v -0.146807939 0.247487366 0.7380533
v -0.132006332 0.133939147 0.6636406
v -0.1268087 -3.059797E-08 0.6375104
v -0.132006347 -0.133939192 0.6636407
v -0.146807939 -0.247487411 0.7380533
v -0.168960109 -0.32335788 0.8494198
v -0.195090324 -0.35 0.980785251
v -0.221220583 -0.3233578 1.11215091
v -0.243372723 -0.247487277 1.2235173
v -0.2581743 -0.133939192 1.29792988
v -0.5166228 0 1.24723732
v -0.5064272 0.1339392 1.22262311
v -0.477392823 0.247487366 1.15252793
v -0.4339398 0.323357821 1.04762316
v -0.382683516 0.35 0.9238795
v -0.3314272 0.323357821 0.8001358
v -0.287974179 0.247487366 0.695231
v -0.258939773 0.133939147 0.6251358
v -0.248744279 -3.059797E-08 0.6005217
v -0.2589398 -0.133939192 0.625135839
v -0.2879742 -0.247487411 0.6952311
v -0.331427246 -0.32335788 0.8001359
v -0.382683516 -0.35 0.9238795
v -0.433939874 -0.3233578 1.04762328
v -0.477392882 -0.247487277 1.152528
v -0.5064272 -0.133939192 1.22262311
v -0.75002 0 1.12248385
v -0.7352184 0.1339392 1.10033166
v -0.693066955 0.247487366 1.03724766
v -0.629983 0.323357821 0.942835867
v -0.555570364 0.35 0.831469536
v -0.48115772 0.323357821 0.720103145
v -0.4180737 0.247487366 0.625691354
v -0.375922322 0.133939147 0.5626073
v -0.361120731 -3.059797E-08 0.540455163
v -0.375922352 -0.133939192 0.562607348
v -0.418073744 -0.247487411 0.625691354
v -0.48115778 -0.32335788 0.720103264
v -0.555570364 -0.35 0.831469536
v -0.629983068 -0.3233578 0.9428359
v -0.693067 -0.247487277 1.03724778
v -0.7352184 -0.133939192 1.10033166
v -0.954594135 0 0.954594135
v -0.935755253 0.1339392 0.935755253
v -0.8821067 0.247487366 0.8821067
v -0.801816046 0.323357821 0.801816046
v -0.707106769 0.35 0.707106769
v -0.612397432 0.323357821 0.612397432
v -0.532106757 0.247487366 0.532106757
v -0.478458226 0.133939147 0.478458226
v -0.459619373 -3.059797E-08 0.459619373
v -0.478458256 -0.133939192 0.478458256
v -0.5321068 -0.247487411 0.5321068
v -0.612397552 -0.32335788 0.612397552
v -0.707106769 -0.35 0.707106769
v -0.8018161 -0.3233578 0.8018161
v -0.8821068 -0.247487277 0.8821068
v -0.935755253 -0.133939192 0.935755253
v -1.12248409 0 0.7500198
v -1.1003319 0.1339392 0.735218167
v -1.0372479 0.247487366 0.6930668
v -0.942836 0.323357821 0.629982769
v -0.831469655 0.35 0.5555702
v -0.720103264 0.323357821 0.481157541
v -0.6256914 0.247487366 0.4180736
v -0.5626074 0.133939147 0.375922173
v -0.5404553 -3.059797E-08 0.3611206
v -0.562607467 -0.133939192 0.375922233
v -0.6256915 -0.247487411 0.418073624
v -0.7201034 -0.32335788 0.481157631
v -0.831469655 -0.35 0.5555702
v -0.9428361 -0.3233578 0.6299828
v -1.0372479 -0.247487277 0.693066835
v -1.1003319 -0.133939192 0.735218167
v -1.24723756 0 0.5166224
v -1.22262335 0.1339392 0.50642693
v -1.152528 0.247487366 0.477392524
v -1.04762328 0.323357821 0.433939546
v -0.9238796 0.35 0.382683277
v -0.8001359 0.323357821 0.331426978
v -0.6952311 0.247487366 0.287974
v -0.625135839 0.133939147 0.258939624
v -0.600521743 -3.059797E-08 0.248744115
v -0.6251359 -0.133939192 0.258939654
v -0.69523114 -0.247487411 0.28797403
v -0.800136 -0.32335788 0.331427038
v -0.9238796 -0.35 0.382683277
v -1.0476234 -0.3233578 0.4339396
v -1.15252817 -0.247487277 0.477392584
v -1.22262335 -0.133939192 0.50642693
v -1.3240602 0 0.2633719
v -1.29792988 0.1339392 0.2581743
v -1.22351718 0.247487366 0.243372679
v -1.11215091 0.323357821 0.221220538
v -0.9807853 0.35 0.195090309
v -0.8494197 0.323357821 0.168960065
v -0.7380533 0.247487366 0.146807924
v -0.6636407 0.133939147 0.132006317
v -0.6375104 -3.059797E-08 0.1268087
v -0.663640738 -0.133939192 0.132006332
v -0.7380534 -0.247487411 0.146807939
v -0.849419832 -0.32335788 0.1689601
v -0.9807853 -0.35 0.195090309
v -1.112151 -0.3233578 0.221220568
v -1.2235173 -0.247487277 0.243372709
v -1.29792988 -0.133939192 0.2581743
v -1.35 0 -1.18020751E-07
v -1.32335782 0.1339392 -1.15691613E-07
v -1.24748731 0.247487366 -1.090588E-07
v -1.13393915 0.323357821 -9.913211E-08
v -1 0.35 -8.742278E-08
v -0.8660608 0.323357821 -7.571344E-08
v -0.752512634 0.247487366 -6.578674E-08
v -0.6766421 0.133939147 -5.91539333E-08
v -0.65 -3.059797E-08 -5.68248026E-08
v -0.6766422 -0.133939192 -5.91539369E-08
v -0.7525127 -0.247487411 -6.578675E-08
v -0.8660609 -0.32335788 -7.571345E-08
v -1 -0.35 -8.742278E-08
v -1.13393927 -0.3233578 -9.91321158E-08
v -1.24748743 -0.247487277 -1.09058817E-07
v -1.32335782 -0.133939192 -1.15691613E-07
v -1.32406008 0 -0.263372153
v -1.29792988 0.1339392 -0.2581745
v -1.22351718 0.247487366 -0.2433729
v -1.11215079 0.323357821 -0.221220747
v -0.980785251 0.35 -0.195090488
v -0.849419653 0.323357821 -0.168960229
v -0.7380533 0.247487366 -0.146808058
v -0.6636406 0.133939147 -0.132006437
v -0.6375104 -3.059797E-08 -0.1268088
v -0.6636407 -0.133939192 -0.132006451
v -0.7380533 -0.247487411 -0.146808073
v -0.8494198 -0.32335788 -0.168960243
v -0.980785251 -0.35 -0.195090488
v -1.11215091 -0.3233578 -0.221220762
v -1.2235173 -0.247487277 -0.243372932
v -1.29792988 -0.133939192 -0.2581745
v -1.24723732 0 -0.516622663
v -1.22262311 0.1339392 -0.5064271
v -1.15252793 0.247487366 -0.4773927
v -1.04762316 0.323357821 -0.433939725
v -0.9238795 0.35 -0.382683426
v -0.8001358 0.323357821 -0.3314271
v -0.695231 0.247487366 -0.287974119
v -0.6251358 0.133939147 -0.2589397
v -0.6005217 -3.059797E-08 -0.24874422
v -0.625135839 -0.133939192 -0.258939743
v -0.6952311 -0.247487411 -0.287974149
v -0.8001359 -0.32335788 -0.331427157
v -0.9238795 -0.35 -0.382683426
v -1.04762328 -0.3233578 -0.433939755
v -1.152528 -0.247487277 -0.477392763
v -1.22262311 -0.133939192 -0.5064271
v -1.12248385 0 -0.7500199
v -1.10033166 0.1339392 -0.7352183
v -1.03724766 0.247487366 -0.6930669
v -0.942835867 0.323357821 -0.6299829
v -0.831469536 0.35 -0.5555703
v -0.720103145 0.323357821 -0.48115766
v -0.625691354 0.247487366 -0.418073684
v -0.5626073 0.133939147 -0.375922263
v -0.540455163 -3.059797E-08 -0.361120671
v -0.562607348 -0.133939192 -0.3759223
v -0.625691354 -0.247487411 -0.4180737
v -0.720103264 -0.32335788 -0.48115772
v -0.831469536 -0.35 -0.5555703
v -0.9428359 -0.3233578 -0.629983
v -1.03724778 -0.247487277 -0.693066955
v -1.10033166 -0.133939192 -0.7352183
v -0.954594 0 -0.9545943
v -0.935755134 0.1339392 -0.935755432
v -0.882106543 0.247487366 -0.882106841
v -0.8018159 0.323357821 -0.801816165
v -0.70710665 0.35 -0.7071069
v -0.6123974 0.323357821 -0.612397552
v -0.5321067 0.247487366 -0.5321069
v -0.478458136 0.133939147 -0.478458315
v -0.4596193 -3.059797E-08 -0.459619462
v -0.4784582 -0.133939192 -0.478458345
v -0.532106757 -0.247487411 -0.532106936
v -0.612397432 -0.32335788 -0.6123976
v -0.70710665 -0.35 -0.7071069
v -0.801816 -0.3233578 -0.8018163
v -0.882106662 -0.247487277 -0.88210696
v -0.935755134 -0.133939192 -0.935755432
v -0.75001955 0 -1.12248421
v -0.7352179 0.1339392 -1.100332
v -0.693066537 0.247487366 -1.037248
v -0.6299826 0.323357821 -0.9428361
v -0.55557 0.35 -0.8314698
v -0.4811574 0.323357821 -0.7201034
v -0.418073446 0.247487366 -0.625691533
v -0.375922054 0.133939147 -0.562607467
v -0.3611205 -3.059797E-08 -0.540455341
v -0.3759221 -0.133939192 -0.5626075
v -0.418073475 -0.247487411 -0.625691533
v -0.481157452 -0.32335788 -0.720103443
v -0.55557 -0.35 -0.8314698
v -0.62998265 -0.3233578 -0.9428362
v -0.6930666 -0.247487277 -1.03724813
v -0.7352179 -0.133939192 -1.100332
v -0.516622245 0 -1.24723756
v -0.5064267 0.1339392 -1.22262335
v -0.477392346 0.247487366 -1.15252817
v -0.433939368 0.323357821 -1.0476234
v -0.382683128 0.35 -0.9238797
v -0.331426859 0.323357821 -0.80013597
v -0.287973881 0.247487366 -0.69523114
v -0.258939534 0.133939147 -0.6251359
v -0.248744026 -3.059797E-08 -0.600521743
v -0.258939534 -0.133939192 -0.625135958
v -0.2879739 -0.247487411 -0.6952312
v -0.3314269 -0.32335788 -0.8001361
v -0.382683128 -0.35 -0.9238797
v -0.433939427 -0.3233578 -1.0476234
v -0.4773924 -0.247487277 -1.15252829
v -0.5064267 -0.133939192 -1.22262335
v -0.263372034 0 -1.32406008
v -0.2581744 0.1339392 -1.29792988
v -0.243372783 0.247487366 -1.22351718
v -0.221220627 0.323357821 -1.11215079
v -0.195090383 0.35 -0.980785251
v -0.168960139 0.323357821 -0.849419653
v -0.146807984 0.247487366 -0.7380533
v -0.132006377 0.133939147 -0.6636406
v -0.126808748 -3.059797E-08 -0.6375104
v -0.132006377 -0.133939192 -0.6636407
v -0.146807984 -0.247487411 -0.7380533
v -0.168960154 -0.32335788 -0.8494198
v -0.195090383 -0.35 -0.980785251
v -0.221220642 -0.3233578 -1.11215091
v -0.2433728 -0.247487277 -1.2235173
v -0.2581744 -0.133939192 -1.29792988
v 1.609859E-08 0 -1.35
v 1.57808842E-08 0.1339392 -1.32335782
v 1.48761377E-08 0.247487366 -1.24748731
v 1.35220892E-08 0.323357821 -1.13393915
v 1.19248806E-08 0.35 -1
v 1.03276712E-08 0.323357821 -0.8660608
v 8.973624E-09 0.247487366 -0.752512634
v 8.068876E-09 0.133939147 -0.6766421
v 7.751172E-09 -3.059797E-08 -0.65
v 8.068877E-09 -0.133939192 -0.6766422
v 8.973624E-09 -0.247487411 -0.7525127
v 1.03276729E-08 -0.32335788 -0.8660609
v 1.19248806E-08 -0.35 -1
v 1.352209E-08 -0.3233578 -1.13393927
v 1.48761385E-08 -0.247487277 -1.24748743
v 1.57808842E-08 -0.133939192 -1.32335782
v 0.263372064 0 -1.32406008
v 0.258174419 0.1339392 -1.29792988
v 0.243372813 0.247487366 -1.22351718
v 0.221220657 0.323357821 -1.11215079
v 0.195090413 0.35 -0.980785251
v 0.168960154 0.323357821 -0.849419653
v 0.146808 0.247487366 -0.7380533
v 0.132006392 0.133939147 -0.6636406
v 0.126808763 -3.059797E-08 -0.6375104
v 0.1320064 -0.133939192 -0.6636407
v 0.146808013 -0.247487411 -0.7380533
v 0.168960184 -0.32335788 -0.8494198
v 0.195090413 -0.35 -0.980785251
v 0.221220687 -0.3233578 -1.11215091
v 0.243372843 -0.247487277 -1.2235173
v 0.258174419 -0.133939192 -1.29792988
v 0.5166229 0 -1.24723732
v 0.506427348 0.1339392 -1.22262311
v 0.477392942 0.247487366 -1.15252793
v 0.433939934 0.323357821 -1.047623
v 0.3826836 0.35 -0.923879445
v 0.331427276 0.323357821 -0.8001358
v 0.287974238 0.247487366 -0.695230961
v 0.258939832 0.133939147 -0.6251357
v 0.248744339 -3.059797E-08 -0.6005216
v 0.258939862 -0.133939192 -0.6251358
v 0.287974268 -0.247487411 -0.695231
v 0.3314273 -0.32335788 -0.800135851
v 0.3826836 -0.35 -0.923879445
v 0.433939964 -0.3233578 -1.04762316
v 0.477392972 -0.247487277 -1.152528
v 0.506427348 -0.133939192 -1.22262311
v 0.7500201 0 -1.12248385
v 0.735218465 0.1339392 -1.10033166
v 0.6930671 0.247487366 -1.03724766
v 0.629983068 0.323357821 -0.9428358
v 0.5555704 0.35 -0.8314695
v 0.48115775 0.323357821 -0.7201031
v 0.418073773 0.247487366 -0.6256913
v 0.375922352 0.133939147 -0.5626073
v 0.36112076 -3.059797E-08 -0.540455163
v 0.375922382 -0.133939192 -0.562607348
v 0.4180738 -0.247487411 -0.625691354
v 0.481157839 -0.32335788 -0.7201032
v 0.5555704 -0.35 -0.8314695
v 0.6299831 -0.3233578 -0.942835867
v 0.693067133 -0.247487277 -1.03724766
v 0.735218465 -0.133939192 -1.10033166
v 0.9545945 0 -0.954593837
v 0.9357556 0.1339392 -0.935754955
v 0.882107 0.247487366 -0.8821064
v 0.801816344 0.323357821 -0.801815748
v 0.707107 0.35 -0.707106531
v 0.6123977 0.323357821 -0.612397254
v 0.532106936 0.247487366 -0.5321066
v 0.478458375 0.133939147 -0.478458077
v 0.459619552 -3.059797E-08 -0.459619224
v 0.478458434 -0.133939192 -0.4784581
v 0.532107 -0.247487411 -0.532106638
v 0.61239773 -0.32335788 -0.6123973
v 0.707107 -0.35 -0.707106531
v 0.8018164 -0.3233578 -0.801815867
v 0.8821071 -0.247487277 -0.8821065
v 0.9357556 -0.133939192 -0.935754955
v 1.122484 0 -0.7500199
v 1.10033178 0.1339392 -0.7352183
v 1.03724778 0.247487366 -0.6930669
v 0.9428359 0.323357821 -0.6299829
v 0.8314696 0.35 -0.5555703
v 0.7201032 0.323357821 -0.48115766
v 0.625691354 0.247487366 -0.418073684
v 0.562607348 0.133939147 -0.375922263
v 0.5404552 -3.059797E-08 -0.361120671
v 0.5626074 -0.133939192 -0.3759223
v 0.6256914 -0.247487411 -0.4180737
v 0.7201033 -0.32335788 -0.48115772
v 0.8314696 -0.35 -0.5555703
v 0.942836046 -0.3233578 -0.629983
v 1.0372479 -0.247487277 -0.693066955
v 1.10033178 -0.133939192 -0.7352183
v 1.24723744 0 -0.516622663
v 1.22262323 0.1339392 -0.5064271
v 1.152528 0.247487366 -0.4773927
v 1.04762316 0.323357821 -0.433939725
v 0.923879564 0.35 -0.382683426
v 0.800135851 0.323357821 -0.3314271
v 0.695231 0.247487366 -0.287974119
v 0.625135839 0.133939147 -0.2589397
v 0.6005217 -3.059797E-08 -0.24874422
v 0.6251359 -0.133939192 -0.258939743
v 0.6952311 -0.247487411 -0.287974149
v 0.80013597 -0.32335788 -0.331427157
v 0.923879564 -0.35 -0.382683426
v 1.04762328 -0.3233578 -0.433939755
v 1.15252817 -0.247487277 -0.477392763
v 1.22262323 -0.133939192 -0.5064271
v 1.3240602 0 -0.263371825
v 1.29792988 0.1339392 -0.258174181
v 1.22351718 0.247487366 -0.243372589
v 1.11215091 0.323357821 -0.221220449
v 0.9807853 0.35 -0.195090234
v 0.8494197 0.323357821 -0.16896
v 0.7380533 0.247487366 -0.146807864
v 0.6636407 0.133939147 -0.132006273
v 0.6375104 -3.059797E-08 -0.126808643
v 0.663640738 -0.133939192 -0.132006288
v 0.7380534 -0.247487411 -0.146807879
v 0.849419832 -0.32335788 -0.16896002
v 0.9807853 -0.35 -0.195090234
v 1.112151 -0.3233578 -0.221220478
v 1.2235173 -0.247487277 -0.243372619
v 1.29792988 -0.133939192 -0.258174181
f 1 18 17
f 1 2 18
f 2 19 18
f 2 3 19
f 3 20 19
f 3 4 20
f 4 21 20
f 4 5 21
f 5 22 21
f 5 6 22
f 6 23 22
f 6 7 23
f 7 24 23
f 7 8 24
f 8 25 24
f 8 9 25
f 9 26 25
f 9 10 26
f 10 27 26
f 10 11 27
f 11 28 27
f 11 12 28
f 12 29 28
f 12 13 29
f 13 30 29
f 13 14 30
f 14 31 30
f 14 15 31
f 15 32 31
f 15 16 32
f 16 17 32
f 16 1 17
f 17 34 33
f 17 18 34
f 18 35 34
f 18 19 35
f 19 36 35
f 19 20 36
f 20 37 36
f 20 21 37
f 21 38 37
f 21 22 38
f 22 39 38
f 22 23 39
f 23 40 39
f 23 24 40
f 24 41 40
f 24 25 41
f 25 42 41
f 25 26 42
f 26 43 42
f 26 27 43
f 27 44 43
f 27 28 44
f 28 45 44
f 28 29 45
f 29 46 45
f 29 30 46
f 30 47 46
f 30 31 47
f 31 48 47
f 31 32 48
f 32 33 48
f 32 17 33
f 33 50 49
f 33 34 50
f 34 51 50
f 34 35 51
f 35 52 51
f 35 36 52
f 36 53 52
f 36 37 53
f 37 54 53
f 37 38 54
f 38 55 54
f 38 39 55
f 39 56 55
f 39 40 56
f 40 57 56
f 40 41 57
f 41 58 57
f 41 42 58
f 42 59 58
f 42 43 59
f 43 60 59
f 43 44 60
f 44 61 60
f 44 45 61
f 45 62 61
f 45 46 62
f 46 63 62
f 46 47 63
f 47 64 63
f 47 48 64
f 48 49 64
f 48 33 49
f 49 66 65
f 49 50 66
f 50 67 66
f 50 51 67
f 51 68 67
f 51 52 68
f 52 69 68
f 52 53 69
f 53 70 69
f 53 54 70
f 54 71 70
f 54 55 71
f 55 72 71
f 55 56 72
f 56 73 72
f 56 57 73
f 57 74 73
f 57 58 74
f 58 75 74
f 58 59 75
f 59 76 75
f 59 60 76
f 60 77 76
f 60 61 77
f 61 78 77
f 61 62 78
f 62 79 78
f 62 63 79
f 63 80 79
f 63 64 80
f 64 65 80
f 64 49 65
f 65 82 81
f 65 66 82
f 66 83 82
f 66 67 83
f 67 84 83
f 67 68 84
f 68 85 84
f 68 69 85
f 69 86 85
f 69 70 86
f 70 87 86
f 70 71 87
f 71 88 87
f 71 72 88
f 72 89 88
f 72 73 89
f 73 90 89
f 73 74 90
f 74 91 90
f 74 75 91
f 75 92 91
f 75 76 92
f 76 93 92
f 76 77 93
f 77 94 93
f 77 78 94
f 78 95 94
f 78 79 95
f 79 96 95
f 79 80 96
f 80 81 96
f 80 65 81
f 81 98 97
f 81 82 98
f 82 99 98
f 82 83 99
f 83 100 99
f 83 84 100
f 84 101 100
f 84 85 101
f 85 102 101
f 85 86 102
f 86 103 102
f 86 87 103
f 87 104 103
f 87 88 104
f 88 105 104
f 88 89 105
f 89 106 105
f 89 90 106
f 90 107 106
f 90 91 107
f 91 108 107
f 91 92 108
f 92 109 108
f 92 93 109
f 93 110 109
f 93 94 110
f 94 111 110
f 94 95 111
f 95 112 111
f 95 96 112
f 96 97 112
f 96 81 97
f 97 114 113
f 97 98 114
f 98 115 114
f 98 99 115
f 99 116 115
f 99 100 116
f 100 117 116
f 100 101 117
f 101 118 117
f 101 102 118
f 102 119 118
f 102 103 119
f 103 120 119
f 103 104 120
f 104 121 120
f 104 105 121
f 105 122 121
f 105 106 122
f 106 123 122
f 106 107 123
f 107 124 123
f 107 108 124
f 108 125 124
f 108 109 125
f 109 126 125
f 109 110 126
f 110 127 126
f 110 111 127
f 111 128 127
f 111 112 128
f 112 113 128
f 112 97 113
f 113 130 129
f 113 114 130
f 114 131 130
f 114 115 131
f 115 132 131
f 115 116 132
f 116 133 132
f 116 117 133
f 117 134 133
f 117 118 134
f 118 135 134
f 118 119 135
f 119 136 135
f 119 120 136
f 120 137 136
f 120 121 137
f 121 138 137
f 121 122 138
f 122 139 138
f 122 123 139
f 123 140 139
f 123 124 140
f 124 141 140
f 124 125 141
f 125 142 141
f 125 126 142
f 126 143 142
f 126 127 143
f 127 144 143
f 127 128 144
f 128 129 144
f 128 113 129
f 129 146 145
f 129 130 146
f 130 147 146
f 130 131 147
f 131 148 147
f 131 132 148
f 132 149 148
f 132 133 149
f 133 150 149
f 133 134 150
f 134 151 150
f 134 135 151
f 135 152 151
f 135 136 152
f 136 153 152
f 136 137 153
f 137 154 153
f 137 138 154
f 138 155 154
f 138 139 155
f 139 156 155
f 139 140 156
f 140 157 156
f 140 141 157
f 141 158 157
f 141 142 158
f 142 159 158
f 142 143 159
f 143 160 159
f 143 144 160
f 144 145 160
f 144 129 145
f 145 162 161
f 145 146 162
f 146 163 162
f 146 147 163
f 147 164 163
f 147 148 164
f 148 165 164
f 148 149 165
f 149 166 165
f 149 150 166
f 150 167 166
f 150 151 167
f 151 168 167
f 151 152 168
f 152 169 168
f 152 153 169
f 153 170 169
f 153 154 170
f 154 171 170
f 154 155 171
f 155 172 171
f 155 156 172
f 156 173 172
f 156 157 173
f 157 174 173
f 157 158 174
f 158 175 174
f 158 159 175
f 159 176 175
f 159 160 176
f 160 161 176
f 160 145 161
f 161 178 177
f 161 162 178
f 162 179 178
f 162 163 179
f 163 180 179
f 163 164 180
f 164 181 180
f 164 165 181
f 165 182 181
f 165 166 182
f 166 183 182
f 166 167 183
f 167 184 183
f 167 168 184
f 168 185 184
f 168 169 185
f 169 186 185
f 169 170 186
f 170 187 186
f 170 171 187
f 171 188 187
f 171 172 188
f 172 189 188
f 172 173 189
f 173 190 189
f 173 174 190
f 174 191 190
f 174 175 191
f 175 192 191
f 175 176 192
f 176 177 192
f 176 161 177
f 177 194 193
f 177 178 194
f 178 195 194
f 178 179 195
f 179 196 195
f 179 180 196
f 180 197 196
f 180 181 197
f 181 198 197
f 181 182 198
f 182 199 198
f 182 183 199
f 183 200 199
f 183 184 200
f 184 201 200
f 184 185 201
f 185 202 201
f 185 186 202
f 186 203 202
f 186 187 203
f 187 204 203
f 187 188 204
f 188 205 204
f 188 189 205
f 189 206 205
f 189 190 206
f 190 207 206
f 190 191 207
f 191 208 207
f 191 192 208
f 192 193 208
f 192 177 193
f 193 210 209
f 193 194 210
f 194 211 210
f 194 195 211
f 195 212 211
f 195 196 212
f 196 213 212
f 196 197 213
f 197 214 213
f 197 198 214
f 198 215 214
f 198 199 215
f 199 216 215
f 199 200 216
f 200 217 216
f 200 201 217
f 201 218 217
f 201 202 218
f 202 219 218
f 202 203 219
f 203 220 219
f 203 204 220
f 204 221 220
f 204 205 221
f 205 222 221
f 205 206 222
f 206 223 222
f 206 207 223
f 207 224 223
f 207 208 224
f 208 209 224
f 208 193 209
f 209 226 225
f 209 210 226
f 210 227 226
f 210 211 227
f 211 228 227
f 211 212 228
f 212 229 228
f 212 213 229
f 213 230 229
f 213 214 230
f 214 231 230
f 214 215 231
f 215 232 231
f 215 216 232
f 216 233 232
f 216 217 233
f 217 234 233
f 217 218 234
f 218 235 234
f 218 219 235
f 219 236 235
f 219 220 236
f 220 237 236
f 220 221 237
f 221 238 237
f 221 222 238
f 222 239 238
f 222 223 239
f 223 240 239
f 223 224 240
f 224 225 240
f 224 209 225
f 225 242 241
f 225 226 242
f 226 243 242
f 226 227 243
f 227 244 243
f 227 228 244
f 228 245 244
f 228 229 245
f 229 246 245
f 229 230 246
f 230 247 246
f 230 231 247
f 231 248 247
f 231 232 248
f 232 249 248
f 232 233 249
f 233 250 249
f 233 234 250
f 234 251 250
f 234 235 251
f 235 252 251
f 235 236 252
f 236 253 252
f 236 237 253
f 237 254 253
f 237 238 254
f 238 255 254
f 238 239 255
f 239 256 255
f 239 240 256
f 240 241 256
f 240 225 241
f 241 258 257
f 241 242 258
f 242 259 258
f 242 243 259
f 243 260 259
f 243 244 260
f 244 261 260
f 244 245 261
f 245 262 261
f 245 246 262
f 246 263 262
f 246 247 263
f 247 264 263
f 247 248 264
f 248 265 264
f 248 249 265
f 249 266 265
f 249 250 266
f 250 267 266
f 250 251 267
f 251 268 267
f 251 252 268
f 252 269 268
f 252 253 269
f 253 270 269
f 253 254 270
f 254 271 270
f 254 255 271
f 255 272 271
f 255 256 272
f 256 257 272
f 256 241 257
f 257 274 273
f 257 258 274
f 258 275 274
f 258 259 275
f 259 276 275
f 259 260 276
f 260 277 276
f 260 261 277
f 261 278 277
f 261 262 278
f 262 279 278
f 262 263 279
f 263 280 279
f 263 264 280
f 264 281 280
f 264 265 281
f 265 282 281
f 265 266 282
f 266 283 282
f 266 267 283
f 267 284 283
f 267 268 284
f 268 285 284
f 268 269 285
f 269 286 285
f 269 270 286
f 270 287 286
f 270 271 287
f 271 288 287
f 271 272 288
f 272 273 288
f 272 257 273
f 273 290 289
f 273 274 290
f 274 291 290
f 274 275 291
f 275 292 291
f 275 276 292
f 276 293 292
f 276 277 293
f 277 294 293
f 277 278 294
f 278 295 294
f 278 279 295
f 279 296 295
f 279 280 296
f 280 297 296
f 280 281 297
f 281 298 297
f 281 282 298
f 282 299 298
f 282 283 299
f 283 300 299
f 283 284 300
f 284 301 300
f 284 285 301
f 285 302 301
f 285 286 302
f 286 303 302
f 286 287 303
f 287 304 303
f 287 288 304
f 288 289 304
f 288 273 289
f 289 306 305
f 289 290 306
f 290 307 306
f 290 291 307
f 291 308 307
f 291 292 308
f 292 309 308
f 292 293 309
f 293 310 309
f 293 294 310
f 294 311 310
f 294 295 311
f 295 312 311
f 295 296 312
f 296 313 312
f 296 297 313
f 297 314 313
f 297 298 314
f 298 315 314
f 298 299 315
f 299 316 315
f 299 300 316
f 300 317 316
f 300 301 317
f 301 318 317
f 301 302 318
f 302 319 318
f 302 303 319
f 303 320 319
f 303 304 320
f 304 305 320
f 304 289 305
f 305 322 321
f 305 306 322
f 306 323 322
f 306 307 323
f 307 324 323
f 307 308 324
f 308 325 324
f 308 309 325
f 309 326 325
f 309 310 326
f 310 327 326
f 310 311 327
f 311 328 327
f 311 312 328
f 312 329 328
f 312 313 329
f 313 330 329
f 313 314 330
f 314 331 330
f 314 315 331
f 315 332 331
f 315 316 332
f 316 333 332
f 316 317 333
f 317 334 333
f 317 318 334
f 318 335 334
f 318 319 335
f 319 336 335
f 319 320 336
f 320 321 336
f 320 305 321
f 321 338 337
f 321 322 338
f 322 339 338
f 322 323 339
f 323 340 339
f 323 324 340
f 324 341 340
f 324 325 341
f 325 342 341
f 325 326 342
f 326 343 342
f 326 327 343
f 327 344 343
f 327 328 344
f 328 345 344
f 328 329 345
f 329 346 345
f 329 330 346
f 330 347 346
f 330 331 347
f 331 348 347
f 331 332 348
f 332 349 348
f 332 333 349
f 333 350 349
f 333 334 350
f 334 351 350
f 334 335 351
f 335 352 351
f 335 336 352
f 336 337 352
f 336 321 337
f 337 354 353
f 337 338 354
f 338 355 354
f 338 339 355
f 339 356 355
f 339 340 356
f 340 357 356
f 340 341 357
f 341 358 357
f 341 342 358
f 342 359 358
f 342 343 359
f 343 360 359
f 343 344 360
f 344 361 360
f 344 345 361
f 345 362 361
f 345 346 362
f 346 363 362
f 346 347 363
f 347 364 363
f 347 348 364
f 348 365 364
f 348 349 365
f 349 366 365
f 349 350 366
f 350 367 366
f 350 351 367
f 351 368 367
f 351 352 368
f 352 353 368
f 352 337 353
f 353 370 369
f 353 354 370
f 354 371 370
f 354 355 371
f 355 372 371
f 355 356 372
f 356 373 372
f 356 357 373
f 357 374 373
f 357 358 374
f 358 375 374
f 358 359 375
f 359 376 375
f 359 360 376
f 360 377 376
f 360 361 377
f 361 378 377
f 361 362 378
f 362 379 378
f 362 363 379
f 363 380 379
f 363 364 380
f 364 381 380
f 364 365 381
f 365 382 381
f 365 366 382
f 366 383 382
f 366 367 383
f 367 384 383
f 367 368 384
f 368 369 384
f 368 353 369
f 369 386 385
f 369 370 386
f 370 387 386
f 370 371 387
f 371 388 387
f 371 372 388
f 372 389 388
f 372 373 389
f 373 390 389
f 373 374 390
f 374 391 390
f 374 375 391
f 375 392 391
f 375 376 392
f 376 393 392
f 376 377 393
f 377 394 393
f 377 378 394
f 378 395 394
f 378 379 395
f 379 396 395
f 379 380 396
f 380 397 396
f 380 381 397
f 381 398 397
f 381 382 398
f 382 399 398
f 382 383 399
f 383 400 399
f 383 384 400
f 384 385 400
f 384 369 385
f 385 402 401
f 385 386 402
f 386 403 402
f 386 387 403
f 387 404 403
f 387 388 404
f 388 405 404
f 388 389 405
f 389 406 405
f 389 390 406
f 390 407 406
f 390 391 407
f 391 408 407
f 391 392 408
f 392 409 408
f 392 393 409
f 393 410 409
f 393 394 410
f 394 411 410
f 394 395 411
f 395 412 411
f 395 396 412
f 396 413 412
f 396 397 413
f 397 414 413
f 397 398 414
f 398 415 414
f 398 399 415
f 399 416 415
f 399 400 416
f 400 401 416
f 400 385 401
f 401 418 417
f 401 402 418
f 402 419 418
f 402 403 419
f 403 420 419
f 403 404 420
f 404 421 420
f 404 405 421
f 405 422 421
f 405 406 422
f 406 423 422
f 406 407 423
f 407 424 423
f 407 408 424
f 408 425 424
f 408 409 425
f 409 426 425
f 409 410 426
f 410 427 426
f 410 411 427
f 411 428 427
f 411 412 428
f 412 429 428
f 412 413 429
f 413 430 429
f 413 414 430
f 414 431 430
f 414 415 431
f 415 432 431
f 415 416 432
f 416 417 432
f 416 401 417
f 417 434 433
f 417 418 434
f 418 435 434
f 418 419 435
f 419 436 435
f 419 420 436
f 420 437 436
f 420 421 437
f 421 438 437
f 421 422 438
f 422 439 438
f 422 423 439
f 423 440 439
f 423 424 440
f 424 441 440
f 424 425 441
f 425 442 441
f 425 426 442
f 426 443 442
f 426 427 443
f 427 444 443
f 427 428 444
f 428 445 444
f 428 429 445
f 429 446 445
f 429 430 446
f 430 447 446
f 430 431 447
f 431 448 447
f 431 432 448
f 432 433 448
f 432 417 433
f 433 450 449
f 433 434 450
f 434 451 450
f 434 435 451
f 435 452 451
f 435 436 452
f 436 453 452
f 436 437 453
f 437 454 453
f 437 438 454
f 438 455 454
f 438 439 455
f 439 456 455
f 439 440 456
f 440 457 456
f 440 441 457
f 441 458 457
f 441 442 458
f 442 459 458
f 442 443 459
f 443 460 459
f 443 444 460
f 444 461 460
f 444 445 461
f 445 462 461
f 445 446 462
f 446 463 462
f 446 447 463
f 447 464 463
f 447 448 464
f 448 449 464
f 448 433 449
f 449 466 465
f 449 450 466
f 450 467 466
f 450 451 467
f 451 468 467
f 451 452 468
f 452 469 468
f 452 453 469
f 453 470 469
f 453 454 470
f 454 471 470
f 454 455 471
f 455 472 471
f 455 456 472
f 456 473 472
f 456 457 473
f 457 474 473
f 457 458 474
f 458 475 474
f 458 459 475
f 459 476 475
f 459 460 476
f 460 477 476
f 460 461 477
f 461 478 477
f 461 462 478
f 462 479 478
f 462 463 479
f 463 480 479
f 463 464 480
f 464 465 480
f 464 449 465
f 465 482 481
f 465 466 482
f 466 483 482
f 466 467 483
f 467 484 483
f 467 468 484
f 468 485 484
f 468 469 485
f 469 486 485
f 469 470 486
f 470 487 486
f 470 471 487
f 471 488 487
f 471 472 488
f 472 489 488
f 472 473 489
f 473 490 489
f 473 474 490
f 474 491 490
f 474 475 491
f 475 492 491
f 475 476 492
f 476 493 492
f 476 477 493
f 477 494 493
f 477 478 494
f 478 495 494
f 478 479 495
f 479 496 495
f 479 480 496
f 480 481 496
f 480 465 481
f 481 498 497
f 481 482 498
f 482 499 498
f 482 483 499
f 483 500 499
f 483 484 500
f 484 501 500
f 484 485 501
f 485 502 501
f 485 486 502
f 486 503 502
f 486 487 503
f 487 504 503
f 487 488 504
f 488 505 504
f 488 489 505
f 489 506 505
f 489 490 506
f 490 507 506
f 490 491 507
f 491 508 507
f 491 492 508
f 492 509 508
f 492 493 509
f 493 510 509
f 493 494 510
f 494 511 510
f 494 495 511
f 495 512 511
f 495 496 512
f 496 497 512
f 496 481 497
f 497 2 1
f 497 498 2
f 498 3 2
f 498 499 3
f 499 4 3
f 499 500 4
f 500 5 4
f 500 501 5
f 501 6 5
f 501 502 6
f 502 7 6
f 502 503 7
f 503 8 7
f 503 504 8
f 504 9 8
f 504 505 9
f 505 10 9
f 505 506 10
f 506 11 10
f 506 507 11
f 507 12 11
f 507 508 12
f 508 13 12
f 508 509 13
f 509 14 13
f 509 510 14
f 510 15 14
f 510 511 15
f 511 16 15
f 511 512 16
f 512 1 16
f 512 497 1
